HIERARCHY
ROOT Hips
{
	OFFSET 0.000000 0.000000 0.000000
	CHANNELS 6 Xposition Yposition Zposition Zrotation Yrotation Xrotation 
	JOINT LeftUpLeg_virtual
	{
		OFFSET 0.000000 0.000000 0.000000
		CHANNELS 3 Zrotation Yrotation Xrotation
		JOINT LeftUpLeg
		{
			OFFSET 10.205400 -3.823500 0.155100
			CHANNELS 3 Zrotation Yrotation Xrotation
			JOINT LeftLeg
			{
				OFFSET 0.708757 -12.982077 0.567790
				CHANNELS 3 Zrotation Yrotation Xrotation
				JOINT LeftFoot
				{
					OFFSET -0.708756 -10.717838 -2.184338
					CHANNELS 3 Zrotation Yrotation Xrotation
					JOINT LeftToeBase
					{
						OFFSET 0.108149 -7.191104 7.560241
						CHANNELS 3 Zrotation Yrotation Xrotation
						End Site
						{
							OFFSET 0.000000 0.000000 0.000000
						}
					}
				}
			}
		}
	}
	JOINT RightUpLeg_virtual
	{
		OFFSET 0.000000 0.000000 0.000000
		CHANNELS 3 Zrotation Yrotation Xrotation
		JOINT RightUpLeg
		{
			OFFSET -10.205400 -3.823500 0.005500
			CHANNELS 3 Zrotation Yrotation Xrotation
			JOINT RightLeg
			{
				OFFSET -0.708756 -12.982134 0.610632
				CHANNELS 3 Zrotation Yrotation Xrotation
				JOINT RightFoot
				{
					OFFSET 0.708754 -10.717769 -1.945823
					CHANNELS 3 Zrotation Yrotation Xrotation
					JOINT RightToeBase
					{
						OFFSET -0.108140 -7.191069 7.372968
						CHANNELS 3 Zrotation Yrotation Xrotation
						End Site
						{
							OFFSET 0.000000 0.000000 0.000000
						}
					}
				}
			}
		}
	}
	JOINT Spine_virtual
	{
		OFFSET 0.000000 0.000000 0.000000
		CHANNELS 3 Zrotation Yrotation Xrotation
		JOINT Spine
		{
			OFFSET 0.000000 6.876099 0.125700
			CHANNELS 3 Zrotation Yrotation Xrotation
			JOINT Spine1
			{
				OFFSET 0.000000 8.022060 0.146608
				CHANNELS 3 Zrotation Yrotation Xrotation
				JOINT Spine2
				{
					OFFSET 0.000000 9.168068 0.167552
					CHANNELS 3 Zrotation Yrotation Xrotation
					JOINT Neck_virtual
					{
						OFFSET 0.000000 0.000000 0.000000
						CHANNELS 3 Zrotation Yrotation Xrotation
						JOINT Neck
						{
							OFFSET 0.000000 10.314075 0.188496
							CHANNELS 3 Zrotation Yrotation Xrotation
							JOINT Head
							{
								OFFSET 0.000000 7.643700 -2.377400
								CHANNELS 3 Zrotation Yrotation Xrotation
								End Site
								{
									OFFSET 0.000000 0.000000 0.000000
								}
							}
						}
					}
					JOINT LeftShoulder_virtual
					{
						OFFSET 0.000000 0.000000 0.000000
						CHANNELS 3 Zrotation Yrotation Xrotation
						JOINT LeftShoulder
						{
							OFFSET 4.392200 8.824978 0.174984
							CHANNELS 3 Zrotation Yrotation Xrotation
							JOINT LeftArm
							{
								OFFSET 8.771219 -2.981674 -0.026999
								CHANNELS 3 Zrotation Yrotation Xrotation
								JOINT LeftForeArm
								{
									OFFSET 8.512804 0.000000 -0.000000
									CHANNELS 3 Zrotation Yrotation Xrotation
									JOINT LeftHand
									{
										OFFSET 18.484802 0.000000 -0.000000
										CHANNELS 3 Zrotation Yrotation Xrotation
										End Site
										{
											OFFSET 0.000000 0.000000 0.000000
										}
									}
								}
							}
						}
					}
					JOINT RightShoulder_virtual
					{
						OFFSET 0.000000 0.000000 0.000000
						CHANNELS 3 Zrotation Yrotation Xrotation
						JOINT RightShoulder
						{
							OFFSET -4.392200 8.824993 0.141379
							CHANNELS 3 Zrotation Yrotation Xrotation
							JOINT RightArm
							{
								OFFSET -8.771282 -2.981682 -0.094208
								CHANNELS 3 Zrotation Yrotation Xrotation
								JOINT RightForeArm
								{
									OFFSET -8.494598 0.000000 0.000000
									CHANNELS 3 Zrotation Yrotation Xrotation
									JOINT RightHand
									{
										OFFSET -18.483803 0.000000 0.000001
										CHANNELS 3 Zrotation Yrotation Xrotation
										End Site
										{
											OFFSET 0.000000 0.000000 0.000000
										}
									}
								}
							}
						}
					}
				}
			}
		}
	}
}
MOTION
Frames: 4
Frame Time: 0.033333
5.321455 36.569744 -1.450863 179.925447 3.727652 -179.524351 -2.641823 -3.443017 10.246346 -4.380743 -0.228553 -16.364168 7.310775 7.851260 14.763080 -7.749518 1.360534 10.936353 0.000000 0.000000 0.000000 3.200496 -1.095603 9.655137 2.247250 -3.553595 -3.757236 -9.205198 1.485625 11.346194 7.495359 8.335145 9.512108 0.000000 0.000000 0.000000 1.233253 0.754779 -1.631519 -5.216308 1.792004 -5.335971 0.989025 -4.077061 2.848201 0.011981 0.006797 0.053591 0.520280 -2.304171 4.840471 0.892586 0.612752 -1.545608 0.000000 0.000000 0.000000 1.957210 -1.402946 2.288976 4.996458 -3.682783 -5.455428 -20.959617 35.148741 -30.297145 -5.859338 -34.492636 -5.396132 0.000000 0.000000 0.000000 -1.640880 -0.724541 1.764607 8.742666 -6.607853 -8.794633 20.572340 -32.974084 -31.172635 -2.426208 33.245556 -4.726808 0.000000 0.000000 0.000000 
5.329580 36.561249 -1.450863 179.782614 3.842115 -179.268068 -2.699372 -3.453486 10.313093 -4.557968 -0.006796 -16.287715 7.222562 8.152039 14.894827 -7.565776 1.532604 10.991770 0.000000 0.000000 0.000000 3.038373 -1.242972 9.983700 1.846324 -2.884628 -3.384308 -9.452623 2.132077 11.618528 7.649069 8.620385 10.245495 0.000000 0.000000 0.000000 1.147522 0.745685 -1.772018 -5.283590 1.766399 -5.453667 0.957696 -4.096947 2.789130 0.021978 -0.008435 0.041534 0.551948 -2.153056 4.893684 0.969629 0.684384 -1.499588 0.000000 0.000000 0.000000 1.974631 -1.334309 2.330626 5.009113 -3.614990 -5.347187 -20.844090 35.187991 -30.131366 -5.867921 -34.434153 -5.400190 0.000000 0.000000 0.000000 -1.658399 -0.619525 1.777111 8.753705 -6.505362 -8.715939 20.611318 -33.003016 -31.168086 -2.439690 33.232378 -4.740130 0.000000 0.000000 0.000000 
5.335413 36.565113 -1.455937 179.764090 3.820450 -179.244723 -2.731129 -3.476730 10.306546 -4.527720 0.015680 -16.294427 7.168465 8.012758 14.860222 -7.521861 1.565214 11.002954 0.000000 0.000000 0.000000 3.000732 -1.241288 9.976237 1.902985 -2.854145 -3.359385 -9.398273 2.143877 11.579396 7.578855 8.535993 10.243913 0.000000 0.000000 0.000000 1.143413 0.723596 -1.856070 -5.281705 1.763609 -5.366991 0.943923 -4.083247 2.902999 -0.018570 -0.000688 -0.047423 0.561367 -2.233696 4.775045 0.940182 0.638503 -1.500628 0.000000 0.000000 0.000000 2.026750 -1.338080 2.222191 5.013605 -3.638944 -5.343070 -20.897085 35.062882 -30.175885 -5.843694 -34.388394 -5.414892 0.000000 0.000000 0.000000 -1.603393 -0.675168 1.712572 8.770745 -6.543720 -8.856098 20.585671 -33.095094 -31.097527 -2.434140 33.194931 -4.712323 0.000000 0.000000 0.000000 
5.343488 36.563824 -1.460974 179.766344 3.777318 -179.266388 -2.676059 -3.436579 10.304945 -4.495191 -0.132154 -16.291777 7.245282 8.432828 14.954397 -7.632370 1.376765 10.991060 0.000000 0.000000 0.000000 3.057387 -1.242944 9.975670 1.866953 -2.887095 -3.319527 -9.480205 2.136501 11.574681 7.611470 8.566137 10.240825 0.000000 0.000000 0.000000 1.117342 0.692791 -1.723513 -5.298731 1.757632 -5.424263 1.059547 -4.077929 2.727668 -0.027618 -0.016028 0.016587 0.565475 -2.166257 4.900432 0.975180 0.655326 -1.554760 0.000000 0.000000 0.000000 2.009258 -1.328063 2.248453 5.062854 -3.580849 -5.452868 -20.944227 34.957598 -30.355072 -5.982002 -34.270126 -5.372353 0.000000 0.000000 0.000000 -1.647416 -0.649910 1.798599 8.797611 -6.549689 -8.825533 20.744369 -33.145313 -31.230097 -2.416774 33.190894 -4.683452 0.000000 0.000000 0.000000 
